<svg width="68" height="33" viewBox="0 0 68 33" fill="none" xmlns="http://www.w3.org/2000/svg">
<path d="M12.496 12.792C12.496 12.808 12.488 12.904 12.472 13.08C12.968 12.904 13.232 12.808 13.264 12.792C13.568 12.696 14.008 12.552 14.584 12.36C15.176 12.168 15.568 12.04 15.76 11.976C16.016 11.88 16.4 11.848 16.912 11.88C17.168 11.896 17.368 11.968 17.512 12.096C17.56 12.24 17.504 12.36 17.344 12.456C17.136 12.568 16.936 12.664 16.744 12.744C15.896 13.048 14.472 13.664 12.472 14.592C12.472 14.592 12.416 14.632 12.304 14.712C12.224 14.984 12.184 15.128 12.184 15.144C12.072 16.216 11.984 17.008 11.92 17.52C11.648 20.464 11.528 23.44 11.56 26.448C11.592 27.904 11.672 29.208 11.8 30.36C11.816 30.456 11.832 30.568 11.848 30.696C11.88 30.824 11.904 30.952 11.92 31.08C11.952 31.224 11.976 31.344 11.992 31.44C12.072 31.92 12.072 32.248 11.992 32.424C11.848 32.36 11.776 32.328 11.776 32.328C11.424 32.04 11.16 31.616 10.984 31.056C10.792 30.4 10.648 29.68 10.552 28.896C10.44 27.856 10.344 26.616 10.264 25.176C10.2 23.848 10.176 20.992 10.192 16.608C10.192 16.576 10.192 16.288 10.192 15.744C10.16 15.728 10.12 15.72 10.072 15.72C10.04 15.72 10.016 15.728 10 15.744C9.984 15.744 9.952 15.76 9.904 15.792C9.856 15.808 9.824 15.816 9.808 15.816C9.696 15.88 9.264 16.088 8.512 16.44C7.776 16.776 7.208 17.032 6.808 17.208C6.76 17.24 5.88 17.608 4.168 18.312C4.152 18.312 4.04 18.36 3.832 18.456C3.448 19.112 3.128 19.856 2.872 20.688C2.616 21.504 2.504 22.152 2.536 22.632C2.216 22.728 2.008 22.648 1.912 22.392C1.832 22.184 1.776 21.944 1.744 21.672C1.728 21.416 1.784 20.992 1.912 20.4C1.944 20.288 1.984 20.12 2.032 19.896C2.096 19.672 2.144 19.528 2.176 19.464C2.176 19.448 2.192 19.336 2.224 19.128C2.112 19.096 1.984 19.152 1.84 19.296C1.584 19.552 1.336 19.568 1.096 19.344C0.776 19.072 0.736 18.808 0.976 18.552C1.168 18.344 1.408 18.152 1.696 17.976C1.76 17.944 2.16 17.728 2.896 17.328C3.056 16.992 3.136 16.816 3.136 16.8C3.808 15.072 4.608 13.368 5.536 11.688C7.104 8.856 8.736 5.96 10.432 3C10.56 2.76 10.704 2.512 10.864 2.256C11.04 2 11.24 1.712 11.464 1.392C11.704 1.056 11.872 0.807999 11.968 0.647999C12 0.615999 12.04 0.567999 12.088 0.503999C12.152 0.439999 12.192 0.391999 12.208 0.36C12.432 0.039999 12.752 -0.0640011 13.168 0.0479994C13.504 0.143999 13.776 0.319999 13.984 0.576C14.176 0.783999 14.248 1.072 14.2 1.44C14.072 2.288 13.992 2.832 13.96 3.072C13.928 3.264 13.792 4.128 13.552 5.664C13.312 7.2 13.128 8.368 13 9.168C12.968 9.424 12.8 10.632 12.496 12.792ZM11.848 4.128C11.848 4.112 11.864 3.952 11.896 3.648C11.672 3.968 11.56 4.128 11.56 4.128C8.808 8.912 7.16 11.776 6.616 12.72C6.52 12.896 5.952 14 4.912 16.032C4.832 16.192 4.824 16.304 4.888 16.368C5.368 16.144 6.224 15.768 7.456 15.24C8.688 14.696 9.64 14.272 10.312 13.968C10.376 13.552 10.408 13.328 10.408 13.296C10.456 12.256 10.592 10.984 10.816 9.48C11.088 7.752 11.432 5.968 11.848 4.128ZM22.9801 15.312C23.0761 15.376 23.1721 15.496 23.2681 15.672C23.1241 15.8 22.9401 15.824 22.7161 15.744C22.5401 15.68 22.3161 15.584 22.0441 15.456C21.9961 15.424 21.7721 15.288 21.3721 15.048C21.1801 15.112 20.9481 15.296 20.6761 15.6C20.1961 16.144 19.6201 17 18.9481 18.168C18.6121 18.76 18.2841 19.304 17.9641 19.8C17.9641 19.832 17.8281 20.024 17.5561 20.376H16.8121C16.3801 20.12 16.1321 19.92 16.0681 19.776C16.0041 19.616 16.0201 19.304 16.1161 18.84C16.1961 18.52 16.3721 17.872 16.6441 16.896C16.9641 15.728 17.2281 14.784 17.4361 14.064C17.5321 13.712 17.6361 13.424 17.7481 13.2C17.8921 12.896 18.1401 12.792 18.4921 12.888C18.8601 12.968 19.0841 13.152 19.1641 13.44C19.1161 13.664 19.0361 13.984 18.9241 14.4C18.8121 14.816 18.7321 15.12 18.6841 15.312C18.7001 15.312 18.7161 15.32 18.7321 15.336C18.7481 15.352 18.7561 15.36 18.7561 15.36C18.7881 15.344 18.8201 15.32 18.8521 15.288C18.8841 15.24 18.9161 15.2 18.9481 15.168C18.9801 15.136 19.0041 15.104 19.0201 15.072C19.3401 14.736 19.5081 14.56 19.5241 14.544C19.8281 14.24 20.1321 14.072 20.4361 14.04C20.7401 13.992 21.0841 14.072 21.4681 14.28C21.4681 14.28 21.6201 14.384 21.9241 14.592C22.4521 14.96 22.8041 15.2 22.9801 15.312ZM35.1228 7.488C35.3628 7.616 35.5148 7.768 35.5788 7.944C35.3228 7.992 34.9628 8.016 34.4988 8.016C34.0508 8 33.7148 8.008 33.4908 8.04C33.2668 8.072 32.9228 8.128 32.4588 8.208C32.0108 8.272 31.6668 8.32 31.4268 8.352C31.3308 8.368 30.6588 8.504 29.4108 8.76C29.3148 8.952 29.2668 9.056 29.2668 9.072C27.6668 13.472 26.6988 16.136 26.3628 17.064C25.8828 18.408 25.5548 19.584 25.3788 20.592C25.2508 21.376 25.2268 22.048 25.3068 22.608C25.3068 22.624 25.3388 22.808 25.4028 23.16C25.5628 23.256 25.7788 23.264 26.0508 23.184C26.7228 23.024 27.4268 22.672 28.1628 22.128C28.6428 21.776 28.9548 21.544 29.0988 21.432C29.3868 21.24 29.6508 21.112 29.8908 21.048C30.0348 21.192 30.0508 21.376 29.9388 21.6C29.7468 21.984 29.5708 22.256 29.4108 22.416C28.4348 23.408 27.3308 23.96 26.0988 24.072C25.2028 24.136 24.3948 23.792 23.6748 23.04C23.4028 22.752 23.2428 22.296 23.1947 21.672C23.0987 20.664 23.2027 19.656 23.5068 18.648C23.8748 17.368 24.2028 16.36 24.4908 15.624C24.6028 15.32 25.3308 13.48 26.6748 10.104C26.6908 10.088 26.7628 9.904 26.8908 9.552C26.8428 9.52 26.7948 9.496 26.7467 9.48C26.6988 9.464 26.6588 9.456 26.6268 9.456C26.6108 9.456 26.5708 9.472 26.5068 9.504C26.4588 9.52 26.4268 9.528 26.4108 9.528C26.1708 9.592 25.8428 9.688 25.4268 9.816C25.0108 9.928 24.6268 10.032 24.2748 10.128C23.9228 10.224 23.5948 10.312 23.2908 10.392C22.6347 10.568 22.1147 10.56 21.7307 10.368C21.5547 10.096 21.4667 9.952 21.4667 9.936C21.5147 9.696 21.6987 9.512 22.0187 9.384C23.0748 8.936 23.7628 8.664 24.0828 8.568C24.2588 8.52 25.3228 8.272 27.2748 7.824C27.3068 7.824 27.4268 7.8 27.6348 7.752C27.7948 7.368 27.8748 7.168 27.8748 7.152C28.0348 6.736 28.2428 6.192 28.4988 5.52C28.7708 4.832 29.0188 4.2 29.2428 3.624C29.4828 3.032 29.7068 2.48 29.9148 1.968C29.9148 1.952 30.0108 1.768 30.2028 1.416C30.5708 1.432 30.8108 1.504 30.9228 1.632C31.0508 1.76 31.0988 1.984 31.0668 2.304C31.0188 2.608 30.9548 2.928 30.8748 3.264C30.8428 3.376 30.5468 4.544 29.9868 6.768C29.9708 6.8 29.9228 6.976 29.8428 7.296C29.9868 7.344 30.2828 7.344 30.7308 7.296C31.9628 7.136 32.9148 7.072 33.5868 7.104C34.1628 7.12 34.6748 7.248 35.1228 7.488ZM41.3241 11.616C41.3241 11.616 41.2361 11.672 41.0601 11.784C41.0121 11.752 40.9561 11.704 40.8921 11.64C40.8281 11.576 40.7881 11.544 40.7721 11.544C40.7721 11.448 40.7721 11.4 40.7721 11.4C40.8841 11.064 40.9641 10.856 41.0121 10.776C41.9561 8.824 42.5641 6.8 42.8361 4.704C42.9481 3.856 42.9001 3.12 42.6921 2.496C42.4681 2.56 42.3481 2.592 42.3321 2.592C41.8521 2.848 41.3641 3.216 40.8681 3.696C39.8281 4.736 38.8521 5.912 37.9401 7.224C36.4521 9.352 35.0921 11.856 33.8601 14.736C33.0601 16.592 32.4601 18.304 32.0601 19.872C31.7401 21.12 31.5961 22.208 31.6281 23.136C31.6441 23.6 31.7321 24.056 31.8921 24.504C32.0201 24.888 32.2841 25.096 32.6841 25.128C33.4521 25.208 34.2201 25.136 34.9881 24.912C36.2681 24.544 37.5721 23.84 38.9001 22.8C39.0921 22.656 39.3881 22.424 39.7881 22.104C40.2041 21.784 40.5161 21.536 40.7241 21.36C41.1561 21.04 41.5481 20.8 41.9001 20.64C41.9001 20.672 41.9001 20.712 41.9001 20.76C41.9001 20.792 41.8921 20.824 41.8761 20.856C41.8761 20.872 41.8761 20.888 41.8761 20.904C41.6361 21.544 41.2921 22.096 40.8441 22.56C39.4361 24.064 37.8361 25.112 36.0441 25.704C35.1001 26.024 34.0681 26.12 32.9481 25.992C32.0361 25.896 31.2441 25.448 30.5721 24.648C30.3801 24.44 30.2361 24.152 30.1401 23.784C29.9481 23.064 29.8841 22.32 29.9481 21.552C30.0921 20.112 30.5481 18.336 31.3161 16.224C32.3561 13.344 33.6601 10.608 35.2281 8.016C36.3641 6.112 37.6121 4.424 38.9721 2.952C39.5321 2.344 40.0681 1.88 40.5801 1.56C40.9801 1.304 41.3161 1.16 41.5881 1.128C42.1161 1.048 42.6201 1.168 43.1001 1.488C43.9481 2.048 44.4121 2.912 44.4921 4.08C44.5241 4.624 44.4601 5.232 44.3001 5.904C43.9641 7.36 43.3881 8.76 42.5721 10.104C42.2841 10.584 41.8681 11.088 41.3241 11.616ZM49.7206 21.36C49.7366 21.36 49.7686 21.432 49.8166 21.576C49.6246 21.672 49.3926 21.64 49.1206 21.48C48.6086 21.176 48.2486 20.744 48.0406 20.184C47.8646 19.704 47.7206 19.064 47.6086 18.264C47.6086 18.2 47.5926 18.048 47.5606 17.808C47.5126 17.776 47.4646 17.776 47.4166 17.808C47.3846 17.824 47.3606 17.84 47.3446 17.856C47.3446 17.856 47.3286 17.88 47.2966 17.928C47.2806 17.96 47.2646 17.976 47.2486 17.976C46.3526 19.112 45.8966 19.688 45.8806 19.704C45.5286 20.12 45.1846 20.432 44.8486 20.64C44.4646 20.88 44.0726 20.96 43.6726 20.88C43.2886 20.8 42.9606 20.576 42.6886 20.208C42.5446 20.032 42.4966 19.8 42.5446 19.512C42.6246 19.064 42.7046 18.728 42.7846 18.504C43.3766 16.792 44.2006 15.256 45.2566 13.896C45.4646 13.624 45.9126 13.144 46.6006 12.456C46.7766 12.28 46.9766 12.144 47.2006 12.048C47.5046 11.904 47.7766 11.92 48.0166 12.096C48.2566 12.272 48.3686 12.536 48.3526 12.888C48.3526 12.888 48.3366 12.976 48.3046 13.152C48.2086 13.184 48.1286 13.184 48.0646 13.152C48.0006 13.12 47.9366 13.072 47.8726 13.008C47.8246 12.928 47.7766 12.88 47.7286 12.864C47.1526 13.472 46.4966 14.464 45.7606 15.84C45.0246 17.216 44.6486 18.16 44.6326 18.672C45.3206 17.92 45.8726 17.192 46.2886 16.488C46.3526 16.392 46.7686 15.616 47.5366 14.16C47.8406 14.08 48.1526 14.104 48.4726 14.232C48.8086 14.36 49.0406 14.56 49.1686 14.832C49.2486 14.976 49.2806 15.152 49.2646 15.36C49.2646 15.536 49.2406 15.792 49.1926 16.128C49.1606 16.448 49.1446 16.68 49.1446 16.824C49.0486 18.056 49.0886 19.176 49.2646 20.184C49.3446 20.664 49.4966 21.056 49.7206 21.36ZM56.8416 18.48C57.0496 18.832 57.1296 19.176 57.0816 19.512C57.0496 19.832 56.8496 20.16 56.4816 20.496C56.0336 20.912 55.4096 21.288 54.6096 21.624C53.8576 21.928 53.2096 22.112 52.6656 22.176C52.5216 22.192 52.2576 22.184 51.8736 22.152C51.8416 22.152 51.7776 22.136 51.6816 22.104C51.5856 22.072 51.5136 22.048 51.4656 22.032C51.1616 22.016 50.9136 21.92 50.7216 21.744C50.5296 21.568 50.3296 21.32 50.1216 21C49.9776 20.744 49.9616 20.488 50.0736 20.232C50.3296 19.704 50.5136 19.36 50.6256 19.2C50.6896 19.104 51.1216 18.544 51.9216 17.52C51.9536 17.488 51.9776 17.464 51.9936 17.448C52.0096 17.416 52.0336 17.384 52.0656 17.352C52.0976 17.304 52.1216 17.272 52.1376 17.256C51.5936 16.776 51.3056 16.52 51.2736 16.488C51.1616 16.36 51.0336 16.208 50.8896 16.032C50.7456 15.856 50.5936 15.624 50.4336 15.336C50.2736 15.048 50.1616 14.776 50.0976 14.52C50.0336 14.056 50.1536 13.616 50.4576 13.2C50.6816 12.896 50.8816 12.664 51.0576 12.504C51.9376 11.704 52.9536 11.232 54.1056 11.088C54.9536 10.976 55.6416 11.256 56.1696 11.928C56.4736 12.328 56.4976 12.728 56.2416 13.128C56.2256 13.144 56.1136 13.304 55.9056 13.608C55.6496 13.528 55.4976 13.448 55.4496 13.368C55.4016 13.288 55.3856 13.056 55.4016 12.672C55.1136 12.672 54.7696 12.832 54.3696 13.152C53.3616 13.968 52.7216 14.776 52.4496 15.576C52.5936 15.736 52.9056 15.904 53.3856 16.08C53.9456 15.648 54.2496 15.416 54.2976 15.384C54.7296 15.048 55.1056 14.848 55.4256 14.784C55.4256 14.784 55.5376 14.776 55.7616 14.76C55.7616 14.984 55.7616 15.104 55.7616 15.12C55.7136 15.344 55.5696 15.584 55.3296 15.84C55.3136 15.856 55.1056 16.072 54.7056 16.488C54.7216 16.552 54.7536 16.608 54.8016 16.656C54.8496 16.688 54.9136 16.728 54.9936 16.776C55.0736 16.808 55.1216 16.832 55.1376 16.848C55.8736 17.264 56.4096 17.752 56.7456 18.312C56.7456 18.328 56.7536 18.352 56.7696 18.384C56.8016 18.416 56.8256 18.448 56.8416 18.48ZM54.3936 19.152C54.6816 18.896 54.8736 18.624 54.9696 18.336C54.4256 18.064 53.9216 17.896 53.4576 17.832C53.0256 18.232 52.6336 18.704 52.2816 19.248C51.9456 19.792 51.7376 20.256 51.6576 20.64C52.8416 20.24 53.7536 19.744 54.3936 19.152ZM67.7931 14.544C68.0011 14.752 68.0091 14.992 67.8171 15.264C67.6251 15.536 67.4251 15.768 67.2171 15.96C66.5291 16.648 65.9851 17.168 65.5851 17.52C64.9131 18.112 63.8651 19.024 62.4411 20.256C62.3611 20.32 62.2731 20.392 62.1771 20.472C62.0811 20.536 61.9771 20.608 61.8651 20.688C61.7691 20.768 61.6891 20.832 61.6251 20.88C61.1451 21.264 60.4891 21.432 59.6571 21.384C59.1931 21.368 58.7851 21.16 58.4331 20.76C58.0971 20.36 57.9451 19.928 57.9771 19.464C57.9931 19.32 58.0251 19.112 58.0731 18.84C58.1211 18.568 58.1451 18.392 58.1451 18.312C58.1931 18.008 58.3291 17.552 58.5531 16.944C59.0011 15.744 59.4491 14.808 59.8971 14.136C60.2491 13.624 60.6171 13.184 61.0011 12.816C61.3371 12.496 61.7291 12.36 62.1771 12.408C62.6251 12.44 63.0011 12.64 63.3051 13.008C63.4971 13.264 63.5691 13.528 63.5211 13.8C63.4411 14.168 63.3611 14.464 63.2811 14.688C62.8651 15.664 62.2091 16.48 61.3131 17.136C61.2811 17.168 60.9531 17.4 60.3291 17.832C60.0251 18.856 59.8891 19.624 59.9211 20.136C60.3051 19.944 60.5051 19.84 60.5211 19.824C61.2731 19.36 61.7851 19.032 62.0571 18.84C64.0091 17.432 65.6171 16.144 66.8811 14.976C67.2331 14.672 67.5371 14.528 67.7931 14.544ZM61.9611 13.704C61.3371 14.376 60.8731 15.264 60.5691 16.368C60.7611 16.176 60.9531 15.928 61.1451 15.624C61.3371 15.32 61.5051 15 61.6491 14.664C61.7931 14.312 61.8971 13.992 61.9611 13.704Z" fill="currentColor"/>
</svg>
